<svg width="18" height="19" viewBox="0 0 18 19" fill="none" xmlns="http://www.w3.org/2000/svg">
<g clip-path="url(#clip0_28_2036)">
<path d="M9 2.125C4.65117 2.125 1.125 5.65117 1.125 10C1.125 14.3488 4.65117 17.875 9 17.875C13.3488 17.875 16.875 14.3488 16.875 10C16.875 5.65117 13.3488 2.125 9 2.125ZM9.39199 13.818L9.39551 14.3752C9.39551 14.4525 9.33223 14.5176 9.25488 14.5176H8.75566C8.67832 14.5176 8.61504 14.4543 8.61504 14.377V13.825C7.0541 13.709 6.31934 12.8195 6.24023 11.8527C6.2332 11.7701 6.29824 11.6998 6.38086 11.6998H7.19297C7.26152 11.6998 7.32129 11.749 7.33184 11.8158C7.42148 12.373 7.85566 12.7896 8.63438 12.8934V10.385L8.2002 10.2742C7.28086 10.0545 6.40547 9.48145 6.40547 8.29316C6.40547 7.01172 7.3793 6.32266 8.62383 6.20137V5.62129C8.62383 5.54395 8.68711 5.48066 8.76445 5.48066H9.2584C9.33574 5.48066 9.39902 5.54395 9.39902 5.62129V6.19609C10.6031 6.31738 11.5066 7.02051 11.6121 8.11562C11.6209 8.19824 11.5559 8.27031 11.4715 8.27031H10.6822C10.6119 8.27031 10.5521 8.21758 10.5434 8.14902C10.473 7.63574 10.0617 7.21738 9.39199 7.12598V9.48672L9.83848 9.59043C10.9775 9.87168 11.7527 10.4166 11.7527 11.6365C11.7527 12.9602 10.7684 13.6984 9.39199 13.818ZM7.49883 8.2123C7.49883 8.65879 7.7748 9.00508 8.36895 9.21953C8.45156 9.25293 8.53418 9.2793 8.63262 9.30742V7.12773C7.98398 7.21035 7.49883 7.57422 7.49883 8.2123ZM9.54668 10.5889C9.49746 10.5783 9.44824 10.566 9.39199 10.5502V12.9004C10.1408 12.8336 10.6576 12.4223 10.6576 11.7332C10.6576 11.1936 10.3781 10.842 9.54668 10.5889Z" fill="#334257"/>
</g>
<defs>
<clipPath id="clip0_28_2036">
<rect width="18" height="18" fill="white" transform="translate(0 0.5)"/>
</clipPath>
</defs>
</svg>
