<svg width="18" height="19" viewBox="0 0 18 19" fill="none" xmlns="http://www.w3.org/2000/svg">
<path d="M4.5 10.25H11.25V8.75H4.5V10.25ZM4.5 8H11.25V6.5H4.5V8ZM3 15.5C2.5875 15.5 2.2345 15.3533 1.941 15.0597C1.647 14.7657 1.5 14.4125 1.5 14V5C1.5 4.5875 1.647 4.2345 1.941 3.941C2.2345 3.647 2.5875 3.5 3 3.5H15C15.4125 3.5 15.7657 3.647 16.0597 3.941C16.3533 4.2345 16.5 4.5875 16.5 5V14C16.5 14.4125 16.3533 14.7657 16.0597 15.0597C15.7657 15.3533 15.4125 15.5 15 15.5H3Z" fill="#334257"/>
</svg>
