<svg width="20" height="20" viewBox="0 0 20 20" fill="none" xmlns="http://www.w3.org/2000/svg">
<path d="M10 2.1875C5.69219 2.1875 2.1875 5.69219 2.1875 10C2.1875 14.3078 5.69219 17.8125 10 17.8125C14.3078 17.8125 17.8125 14.3078 17.8125 10C17.8125 5.69219 14.3078 2.1875 10 2.1875ZM10 5.39062C10.2009 5.39062 10.3972 5.45019 10.5643 5.56179C10.7313 5.67339 10.8614 5.83201 10.9383 6.01759C11.0152 6.20317 11.0353 6.40738 10.9961 6.60439C10.9569 6.8014 10.8602 6.98237 10.7182 7.12441C10.5761 7.26644 10.3952 7.36317 10.1981 7.40236C10.0011 7.44155 9.79692 7.42144 9.61134 7.34457C9.42576 7.2677 9.26714 7.13752 9.15554 6.9705C9.04394 6.80348 8.98438 6.60712 8.98438 6.40625C8.98438 6.13689 9.09138 5.87856 9.28184 5.68809C9.47231 5.49763 9.73064 5.39063 10 5.39062V5.39062ZM12.5 14.2188H7.8125V12.9688H9.53125V9.53125H8.28125V8.28125H10.7812V12.9688H12.5V14.2188Z" fill="#334257"/>
</svg>
