<svg width="262" height="103" viewBox="0 0 262 103" fill="none" xmlns="http://www.w3.org/2000/svg">
<path opacity="0.1" d="M262 28.124V80.1253C229.309 94.2053 182.716 103 130.991 103C79.3011 103 32.7087 94.2053 0 80.1358V28.124C0 24.1943 5.27166 21 11.796 21H250.221C256.728 21 262 24.1943 262 28.124Z" fill="url(#paint0_linear_402_16936)"/>
<path opacity="0.2" d="M262 18.124V70.1253C229.309 84.2053 182.716 93 130.991 93C79.3011 93 32.7087 84.2053 0 70.1358V18.124C0 14.1943 5.27166 11 11.796 11H250.221C256.728 11 262 14.1943 262 18.124Z" fill="url(#paint1_linear_402_16936)"/>
<path d="M262 7.12404V59.1253C229.309 73.2053 182.716 82 130.991 82C79.3011 82 32.7087 73.2053 0 59.1358V7.12404C0 3.19426 5.27166 0 11.796 0H250.221C256.728 0 262 3.19426 262 7.12404Z" fill="url(#paint2_linear_402_16936)"/>
<path d="M250.504 0H11.8093C5.29504 0 0 4.90273 0 10.9705V86C13.9343 81.7769 30.0284 81.6312 44.9207 82.505C68.7136 83.9127 94.4572 86.356 114.662 74.5927C126.924 67.4732 135.372 55.9849 145.614 46.5031C160.367 32.8143 179.317 23.0897 199.644 18.7533C216.574 15.1289 234.201 15.2098 251.114 11.6015C254.772 10.8248 258.429 9.80546 262 8.55955C260.816 3.65682 256.13 0 250.504 0Z" fill="url(#paint3_linear_402_16936)"/>
<path d="M235 0C228.537 4.56081 220.093 7.03529 211.91 7.97333C199.818 9.36421 187.5 8.13506 175.39 9.54212C160.848 11.2241 146.845 16.7715 135.482 25.3756C127.594 31.3434 120.801 38.8154 111.68 42.988C96.6513 49.8778 78.843 46.4491 62.3203 43.8775C45.7977 41.306 26.8948 40.368 14.3508 50.7026C6.30671 57.3335 2.69296 67.1991 0 77V10.9653C0 4.91661 5.2643 0 11.7795 0H235Z" fill="url(#paint4_linear_402_16936)"/>
<defs>
<linearGradient id="paint0_linear_402_16936" x1="0.00869912" y1="62.0015" x2="262.009" y2="62.0015" gradientUnits="userSpaceOnUse">
<stop stop-color="#FECA7A"/>
<stop offset="0.2377" stop-color="#FEC47A"/>
<stop offset="0.561" stop-color="#FDB278"/>
<stop offset="0.9319" stop-color="#FC9676"/>
<stop offset="1" stop-color="#FC9076"/>
</linearGradient>
<linearGradient id="paint1_linear_402_16936" x1="0.00869912" y1="52.0015" x2="262.009" y2="52.0015" gradientUnits="userSpaceOnUse">
<stop stop-color="#FECA7A"/>
<stop offset="0.2377" stop-color="#FEC47A"/>
<stop offset="0.561" stop-color="#FDB278"/>
<stop offset="0.9319" stop-color="#FC9676"/>
<stop offset="1" stop-color="#FC9076"/>
</linearGradient>
<linearGradient id="paint2_linear_402_16936" x1="15.6981" y1="67.6939" x2="168.942" y2="-64.0833" gradientUnits="userSpaceOnUse">
<stop stop-color="#FECA7A"/>
<stop offset="0.2377" stop-color="#FEC47A"/>
<stop offset="0.561" stop-color="#FDB278"/>
<stop offset="0.9319" stop-color="#FC9676"/>
<stop offset="1" stop-color="#FC9076"/>
</linearGradient>
<linearGradient id="paint3_linear_402_16936" x1="78.6122" y1="-37.5235" x2="138.771" y2="74.6414" gradientUnits="userSpaceOnUse">
<stop stop-color="#FECA7A"/>
<stop offset="0.2377" stop-color="#FEC47A"/>
<stop offset="0.561" stop-color="#FDB278"/>
<stop offset="0.9319" stop-color="#FC9676"/>
<stop offset="1" stop-color="#FC9076"/>
</linearGradient>
<linearGradient id="paint4_linear_402_16936" x1="121.01" y1="39.7055" x2="10.1279" y2="-4.27535" gradientUnits="userSpaceOnUse">
<stop stop-color="#FECA7A"/>
<stop offset="0.2377" stop-color="#FEC47A"/>
<stop offset="0.561" stop-color="#FDB278"/>
<stop offset="0.9319" stop-color="#FC9676"/>
<stop offset="1" stop-color="#FC9076"/>
</linearGradient>
</defs>
</svg>
