<svg width="62" height="64" viewBox="0 0 62 64" fill="none" xmlns="http://www.w3.org/2000/svg">
<g clip-path="url(#clip0_3_1726)">
<path d="M47.4217 0C47.4087 0.250773 47.3826 0.501547 47.3826 0.739121C47.3826 4.46113 47.3826 8.19633 47.3826 11.9183C47.3826 12.4331 47.2393 12.6179 46.7312 12.5783C46.2231 12.5387 45.715 12.5783 45.0767 12.5783V0H47.4217Z" fill="white"/>
<path d="M39.8134 28.4826L37.5596 28.6542L37.8071 32.6665C36.7779 32.1254 35.8008 31.6238 34.8367 31.0827C34.7195 31.0167 34.6413 30.8187 34.6413 30.6735C34.4068 27.3871 34.1853 24.1138 33.9639 20.8274C33.9639 20.7746 33.9899 20.7086 34.003 20.6162H58.5606C57.4923 35.0687 56.424 49.4947 55.3558 63.9604H44.0605C44.1126 63.8416 44.1387 63.736 44.1908 63.6436C44.8292 62.6537 45.1158 61.5715 45.1028 60.3968C45.1028 59.0373 45.1028 57.6911 45.1028 56.3316C45.1028 55.3813 44.9204 55.1305 44.0084 54.8138C45.4675 52.57 45.4806 50.2999 44.0084 48.0561C44.9725 47.6601 45.1158 47.449 45.0767 46.4063C44.9464 42.2091 43.5134 38.5267 40.7384 35.4118C40.3345 34.9631 40.1652 34.5011 40.1391 33.9072C40.0609 32.1254 39.9176 30.3436 39.8004 28.4826H39.8134ZM37.2339 24.0742L37.3902 26.3576L39.631 26.186L39.4617 23.9159L37.2209 24.0742H37.2339Z" fill="white"/>
<path d="M0.052002 45.6669C0.312561 42.684 1.30269 40.0311 3.11357 37.7214C6.14908 33.8806 10.1226 32.0064 14.969 31.9932C19.2813 31.9932 23.6065 31.9932 27.9188 31.9932C34.7194 31.9932 40.2562 36.1375 42.2495 42.7368C42.5231 43.6607 42.6534 44.6374 42.8618 45.6669H0.052002ZM13.549 34.3029V36.5731C14.2264 36.5731 14.8648 36.5731 15.5162 36.5731C15.6074 36.5731 15.7637 36.4015 15.7637 36.3091C15.7898 35.6492 15.7637 35.0024 15.7637 34.3161H13.5359L13.549 34.3029ZM29.2867 34.3161H27.111V36.5203H29.2867V34.3161ZM32.674 41.1002V38.896H30.4723V41.1002H32.674ZM20.3105 36.5203H22.4992V34.3161H20.3105V36.5203ZM10.1747 41.087H12.3504V38.8828H10.1747V41.087ZM16.9492 38.8828V41.0738H19.1119V38.8828H16.9492ZM25.9125 38.9092H23.7238V41.0738H25.9125V38.9092Z" fill="white"/>
<path d="M0.0650506 57.1499H42.7316C42.7316 58.6017 42.8749 60.0404 42.6925 61.4394C42.5101 62.8517 41.2073 63.8284 39.7612 63.9736C39.5528 64 39.3443 64 39.1489 64C27.3325 64 15.5032 64 3.68682 64C1.79777 64 0.286526 62.9309 0.0911065 61.2547C-0.0652289 59.9216 0.0650506 58.5622 0.0650506 57.1631V57.1499Z" fill="white"/>
<path d="M24.3883 54.8667H23.8021C17.1057 54.8667 10.3963 54.8667 3.69995 54.8667C1.98026 54.8667 0.716553 54.0352 0.208463 52.6097C-0.586242 50.3528 1.00317 48.0562 3.42637 48.0166C5.30239 47.977 7.16539 48.0166 9.04141 48.0166C10.6438 48.0166 12.2463 48.0166 13.8487 48.0166C14.0963 48.0166 14.3959 48.0694 14.5913 48.2014C17.7571 50.3264 20.9229 52.4645 24.0757 54.6027C24.1408 54.6423 24.1929 54.7083 24.3753 54.8667H24.3883Z" fill="white"/>
<path d="M30.4724 18.2406V14.9146H62V18.2406H30.4724Z" fill="white"/>
<path d="M18.4867 48.0166H37.0124C36.843 48.175 36.7388 48.2806 36.6216 48.373C33.9378 50.3528 31.241 52.3325 28.5573 54.3255C28.2967 54.5235 28.1143 54.5895 27.8016 54.3783C24.7922 52.3193 21.7567 50.2868 18.7342 48.241C18.6691 48.2014 18.6169 48.1354 18.4736 48.0166H18.4867Z" fill="white"/>
<path d="M31.71 54.8268C34.3287 52.8998 36.804 51.0784 39.2663 49.257C39.5659 49.0326 39.8916 48.8478 40.1522 48.5971C40.543 48.2143 40.8817 48.2803 41.2856 48.5443C42.406 49.2834 43.0444 50.6956 42.8099 51.9891C42.5493 53.4146 41.5331 54.4836 40.1522 54.774C39.9177 54.8268 39.6701 54.8664 39.4226 54.8664C36.9864 54.8664 34.5371 54.8664 32.1009 54.8664C32.0227 54.8664 31.9576 54.8664 31.697 54.8268H31.71Z" fill="white"/>
</g>
<defs>
<clipPath id="clip0_3_1726">
<rect width="62" height="64" fill="white"/>
</clipPath>
</defs>
</svg>
