<svg width="62" height="61" viewBox="0 0 62 61" fill="none" xmlns="http://www.w3.org/2000/svg">
<g clip-path="url(#clip0_3_1735)">
<path d="M48.8567 26.3027L50.4815 25.9487C51.125 26.56 51.6558 27.3805 52.3798 27.6701C53.345 28.0401 53.4576 28.6031 53.538 29.4396C53.9724 34.491 54.4228 39.5424 54.8894 44.5777C55.0181 45.9451 55.1467 47.3125 55.2594 48.6638C55.3237 49.3556 55.7581 49.4843 56.3372 49.5165C58.9755 49.6291 61.3081 51.5917 61.8873 54.1496C61.9355 54.3426 61.9516 54.5357 61.9838 54.8413H61.2438C46.9262 54.8413 32.6086 54.8413 18.291 54.8413C16.4088 54.8413 15.1218 53.8922 14.8323 52.2352C14.7518 51.7365 14.7679 51.1734 14.9449 50.7069C15.9905 47.779 17.1006 44.8833 18.1945 41.9716C18.2106 41.9072 18.2749 41.875 18.3554 41.7463C20.0284 42.8564 21.9428 42.7116 23.825 42.7116C26.0289 42.7116 28.2168 42.7116 30.4208 42.7116C31.8525 42.7116 33.3004 42.7598 34.6999 42.1003C34.7804 42.6472 34.8125 43.1459 34.9252 43.6285C35.4882 46.2829 37.0808 48.0364 39.6387 48.9051C41.9874 49.6934 44.2718 49.4843 46.4597 48.3582C49.2428 46.9264 50.578 44.1272 50.2402 40.8294C49.7736 36.4215 49.3875 31.9975 48.9693 27.5896L48.8406 26.3187L48.8567 26.3027ZM26.8655 51.4469C28.0881 51.4469 29.2946 51.4469 30.5173 51.4469C31.2412 51.4469 31.4825 51.1895 31.4825 50.4656C31.4825 49.613 31.4825 48.7764 31.4825 47.9238C31.4825 46.299 30.3886 45.189 28.7477 45.1407C27.509 45.1086 26.2703 45.1086 25.0315 45.1407C23.3746 45.1729 22.3128 46.2347 22.2645 47.8916C22.2485 48.7443 22.2645 49.5808 22.2645 50.4334C22.2645 51.2378 22.5059 51.463 23.3424 51.463C24.5168 51.463 25.6911 51.463 26.8655 51.463V51.4469Z" fill="white"/>
<path d="M15.4921 21.1063C14.5751 20.4145 13.819 19.8032 12.9985 19.2562C12.709 19.0632 12.2907 18.9184 11.9368 18.9345C7.14281 19.2562 2.381 15.5884 1.51229 10.8587C0.868806 7.33563 2.76709 3.49079 6.17758 1.44772C12.1298 -2.10755 19.7391 1.19032 21.1065 7.89868C21.8626 11.6309 20.0608 15.4597 16.5055 17.4706C15.7334 17.9049 15.3794 18.4036 15.476 19.2723C15.5403 19.8193 15.476 20.3984 15.476 21.1223L15.4921 21.1063ZM4.63321 11.8239L4.81017 11.7113C4.81017 12.017 4.81017 12.3227 4.81017 12.6122C4.81017 13.8992 5.43757 14.5266 6.72454 14.5588C7.6576 14.5588 8.59065 14.5588 9.52371 14.5588C11.6633 14.5588 13.7868 14.5588 15.9103 14.5588C17.2295 14.5588 17.873 13.8992 17.873 12.5961C17.873 12.2905 17.873 11.9848 17.873 11.6953C18.3717 11.6148 18.9025 11.5183 18.7899 10.9713C18.7256 10.6174 18.3234 10.3278 18.066 10.0222L17.9212 10.1348C17.4386 5.82343 15.2507 3.53905 11.4863 3.4747C9.82937 3.44253 8.30108 3.89297 6.99802 4.97081C5.35713 6.32213 4.7619 8.1239 4.77799 10.1991C4.23103 10.2313 3.7645 10.4565 3.87711 11.0035C3.94146 11.3252 4.35972 11.5826 4.61712 11.8722L4.63321 11.8239Z" fill="white"/>
<path d="M45.0924 47.4572C42.5185 48.7442 39.1884 47.8111 37.3867 45.3659C36.5984 44.3041 36.1641 43.1137 36.2123 41.7784C36.2123 41.4728 36.4214 41.1671 36.5984 40.8775C37.0488 40.1375 37.6602 39.478 37.9658 38.6897C38.5771 37.081 37.4028 35.4722 35.6814 35.424C34.3623 35.3918 33.027 35.424 31.7079 35.4079C28.5066 35.3435 26.1578 32.4479 26.737 29.1982C28.2009 29.343 29.6487 29.5039 31.1127 29.6487C34.2497 29.9704 37.3867 30.2761 40.5237 30.6461C42.4381 30.8713 43.4998 32.1583 43.4033 34.1048C43.2746 36.6949 43.1459 39.2688 42.9207 41.8589C42.7276 44.0789 42.9207 46.1059 45.1246 47.4411L45.0924 47.4572Z" fill="white"/>
<path d="M26.7048 27.6701C26.8657 25.5466 27.6701 23.6966 28.7801 21.9591C30.5336 19.2082 32.8984 17.0204 35.3597 14.9451C36.2606 14.189 36.2767 14.189 37.2741 14.8164C37.5154 14.9612 37.7567 15.106 38.0141 15.2347C39.5585 15.9747 40.1698 17.1491 39.7837 18.8221C39.5424 19.8517 39.1241 20.833 38.7702 21.8465C38.722 21.9913 38.6898 22.1361 38.6254 22.3452C38.915 22.3452 39.1402 22.3452 39.3815 22.3452C42.599 22.3452 45.8164 22.3452 49.0338 22.3452C50.0634 22.3452 50.6426 23.0852 50.3369 23.9379C50.1278 24.5492 49.6612 24.7422 49.066 24.7422C47.4573 24.7422 45.8486 24.7422 44.2399 24.7422C42.2451 24.7422 40.2342 24.7422 38.2393 24.7422C37.805 24.7422 37.628 24.887 37.4189 25.2731C36.888 26.3027 36.2767 27.3001 35.6493 28.2975C35.5367 28.4744 35.215 28.6353 35.0219 28.6031C32.3675 28.3457 29.697 28.0562 27.0427 27.7827C26.9461 27.7827 26.8496 27.7183 26.7209 27.6862L26.7048 27.6701Z" fill="white"/>
<path d="M21.2834 36.8717H22.1843C26.3991 36.8717 30.63 36.8717 34.8449 36.8717C35.0862 36.8717 35.3275 36.8717 35.5688 36.8878C36.5662 37.0004 36.9362 37.6117 36.5018 38.5287C35.6171 40.3626 34.0083 41.1831 32.0618 41.2313C28.6191 41.3118 25.1926 41.2635 21.7499 41.2313C21.219 41.2313 20.6238 41.167 20.1573 40.9418C19.3529 40.5396 18.5968 40.0248 17.889 39.4618C17.1168 38.8344 17.0042 37.9174 17.1007 36.9039C16.8111 36.9039 16.5859 36.8717 16.3446 36.8717C14.5107 36.8717 12.6928 36.8717 10.8589 36.8717C9.76495 36.8717 9.53973 36.5982 9.73277 35.4561H21.2673V36.8717H21.2834Z" fill="white"/>
<path d="M47.7627 6.85312C45.6553 6.85312 43.5479 6.80486 41.4405 6.82095C40.8453 6.82095 40.7166 7.27139 40.7326 7.78618C40.7326 9.7649 40.7326 11.7436 40.7326 13.7223C40.7326 13.9637 40.7326 14.1889 40.7326 14.4945C39.4296 14.3819 38.3517 13.8993 37.3865 13.1271C35.086 11.3093 34.3139 8.28488 35.4078 5.46963C36.4052 2.91176 38.947 1.35131 41.8427 1.52827C44.8188 1.70522 47.0066 3.45873 47.7145 6.22572C47.7627 6.41877 47.7467 6.64399 47.7467 6.85312H47.7627Z" fill="white"/>
<path d="M11.1163 34.3138C11.1163 32.2063 11.1002 30.1633 11.1163 28.1202C11.1163 27.0424 11.9046 26.2541 12.9824 26.238C15.1381 26.2058 17.2938 26.2058 19.4494 26.238C20.4629 26.2541 21.2673 27.0263 21.2834 28.0076C21.3156 30.0989 21.2834 32.1742 21.2834 34.3138H11.1163Z" fill="white"/>
<path d="M60.9865 56.3535C60.5361 58.9918 58.493 60.681 55.8386 60.6166C53.3773 60.5684 51.3664 58.7988 51.0286 56.3535H60.9865Z" fill="white"/>
<path d="M17.2615 56.3052C20.5433 56.3052 23.809 56.3052 27.0907 56.3052C27.0907 58.6217 24.742 60.6487 22.1037 60.6326C19.5298 60.6005 17.2293 58.5413 17.2776 56.3052H17.2615Z" fill="white"/>
<path d="M55.5007 26.6724C54.9538 26.6724 54.4068 26.7046 53.8759 26.6724C52.7016 26.592 51.8811 25.6589 51.8811 24.5006C51.8811 23.3263 52.7337 22.4093 53.9081 22.361C54.9698 22.3289 56.0477 22.3289 57.1094 22.361C58.2838 22.3932 59.1043 23.3102 59.1043 24.5167C59.1043 25.7233 58.2999 26.6241 57.1255 26.6885C56.5786 26.7207 56.0316 26.6885 55.5007 26.6885V26.6724Z" fill="white"/>
<path d="M42.2126 13.4648V8.30078H46.4114C46.6366 10.746 44.5292 13.3843 42.2126 13.4648Z" fill="white"/>
<path d="M3.53915 26.2222C2.65436 26.2222 1.75348 26.2222 0.868682 26.2222C0.386066 26.2222 -2.60994e-05 26.0774 -0.0161133 25.4983C-0.0161133 24.9353 0.353892 24.7583 0.836507 24.7583C2.65436 24.7583 4.4883 24.7583 6.30615 24.7583C6.78876 24.7583 7.17486 24.9031 7.19094 25.4822C7.19094 26.0614 6.82094 26.2222 6.33832 26.2222C5.40527 26.2222 4.47221 26.2222 3.53915 26.2222Z" fill="white"/>
<path d="M4.45627 30.0831C3.78061 30.0831 3.10495 30.0831 2.44537 30.0831C1.94667 30.0831 1.64101 29.8257 1.6571 29.3431C1.6571 28.8926 1.97884 28.6353 2.42928 28.6353C3.78061 28.6353 5.11584 28.6353 6.46717 28.6353C6.91761 28.6353 7.20718 28.8766 7.22326 29.3592C7.22326 29.874 6.91761 30.0831 6.43499 30.0831C5.7915 30.0831 5.13193 30.0831 4.48844 30.0831H4.45627Z" fill="white"/>
<path d="M5.27656 32.5283C5.69483 32.5283 6.09701 32.5283 6.51528 32.5283C6.94963 32.5283 7.19094 32.7857 7.20702 33.22C7.20702 33.6544 6.96572 33.9279 6.54745 33.9439C5.69483 33.9761 4.8583 34.0083 4.02176 33.9118C3.76437 33.8796 3.39436 33.4935 3.3461 33.22C3.26567 32.7857 3.6035 32.5122 4.07002 32.4961C4.48829 32.4961 4.89047 32.4961 5.30874 32.4961L5.27656 32.5283Z" fill="white"/>
<path d="M13.8671 49.3876C13.2075 49.3071 12.8214 48.9532 12.6766 48.3741C12.5319 47.7949 12.6123 47.2319 13.0949 46.8297C13.6258 46.3793 14.2049 46.4597 14.8806 46.7171L13.8671 49.3876Z" fill="white"/>
<path d="M47.7468 6.86944C48.5673 6.86944 49.3877 6.82118 50.2243 6.83727C50.6586 6.83727 50.9482 7.1751 50.8677 7.56119C50.8195 7.81859 50.4816 8.20468 50.2403 8.22077C49.4682 8.3012 48.696 8.25294 47.9077 8.25294C47.8594 7.73815 47.8112 7.3038 47.779 6.85336H47.7629L47.7468 6.86944Z" fill="white"/>
<path d="M23.7607 49.9026C23.7607 49.1626 23.7285 48.4225 23.7607 47.6825C23.7929 47.0551 24.2112 46.6369 24.8546 46.6047C26.206 46.5725 27.5412 46.5725 28.8925 46.6047C29.5682 46.6208 30.0025 47.1034 30.0347 47.7951C30.0669 48.4708 30.0347 49.1465 30.0347 49.8865H23.7446L23.7607 49.9026Z" fill="white"/>
<path d="M16.3767 9.49152C14.9932 9.13761 13.7062 9.13761 12.4514 9.92588C11.7435 10.3602 10.907 10.3441 10.1992 9.92588C8.97655 9.16978 7.70566 9.15369 6.37042 9.49152C6.04868 7.3841 8.25262 5.1319 10.8587 4.89059C13.8027 4.61711 16.2158 6.62801 16.3606 9.50761L16.3767 9.49152Z" fill="white"/>
<path d="M11.3414 13.0951C9.84527 13.0951 8.34916 13.0951 6.83697 13.0951C6.4187 13.0951 6.20957 12.9825 6.27391 12.5481C6.33826 12.0816 6.25783 11.4542 6.51522 11.1646C7.07827 10.5855 7.89872 10.6176 8.65482 10.7785C8.86395 10.8268 9.057 10.9233 9.25004 11.0359C10.6014 11.8403 11.9688 11.8564 13.3362 11.1003C14.1727 10.6337 14.9932 10.5372 15.878 10.9394C16.3123 11.1324 16.4732 11.3898 16.4571 11.8885C16.4088 13.272 16.618 13.079 15.2345 13.0951C13.9314 13.0951 12.6284 13.0951 11.3253 13.0951H11.3414Z" fill="white"/>
</g>
<defs>
<clipPath id="clip0_3_1735">
<rect width="62" height="60.6165" fill="white"/>
</clipPath>
</defs>
</svg>
