<svg width="62" height="63" viewBox="0 0 62 63" fill="none" xmlns="http://www.w3.org/2000/svg">
<g clip-path="url(#clip0_3_1755)">
<path d="M0 58.642V27.2689C0 27.2689 0.0597015 27.1644 0.0746269 27.1047C0.61194 24.8957 1.83582 23.9106 4.0597 23.9106C22.0448 23.9106 40.0299 23.9106 58.0299 23.9106C60.4925 23.9106 62 25.4032 62 27.8659C62 37.9405 62 48.0151 62 58.0897C62 58.5226 61.9552 58.9853 61.8358 59.4032C61.3731 61.0748 59.9701 62.045 58.0299 62.045C40.0597 62.045 22.0896 62.045 4.13433 62.045C3.95522 62.045 3.77612 62.045 3.58209 62.045C1.97015 62.0002 0.58209 60.8957 0.179104 59.3435C0.119403 59.1196 0.0597015 58.8808 0.0149254 58.6569L0 58.642ZM12.3433 31.1047C11.2537 31.1047 10.1642 31.1047 9.07463 31.1047C7.22388 31.1196 5.95522 32.3883 5.95522 34.239C5.95522 35.9106 5.95522 37.5823 5.95522 39.2689C5.95522 41.1494 7.22388 42.4181 9.10448 42.433C11.2687 42.433 13.4179 42.433 15.5821 42.433C17.4179 42.433 18.6866 41.2241 18.7313 39.3883C18.7761 37.6271 18.7761 35.8808 18.7313 34.1196C18.6866 32.3136 17.4179 31.1345 15.6119 31.1047C14.5224 31.1047 13.4328 31.1047 12.3433 31.1047ZM5.74627 50.5524V54.1047H14.6418V50.5524H5.74627ZM28.5672 50.5524H19.6567V54.1047H28.5672V50.5524ZM42.4179 50.5524H33.5075V54.1047H42.4179V50.5524ZM56.3134 50.5674H47.403V54.1047H56.3134V50.5674Z" fill="white"/>
<path d="M39.1344 0C40.2389 0.328358 41.0448 1.0597 41.821 1.86567C44.1045 4.1791 46.418 6.46269 48.7463 8.79104C48.6419 8.92537 48.5523 9.0597 48.4478 9.16418C45.0896 12.7313 41.7165 16.3134 38.3434 19.8657C38.1344 20.0896 37.7762 20.2687 37.4777 20.2687C30.7463 20.2985 24.0299 20.2836 17.2986 20.2836C17.1493 20.2836 17.0001 20.2537 16.7463 20.2388C16.9702 20 17.1195 19.8209 17.2837 19.6567C23.2389 13.7015 29.1941 7.74627 35.1344 1.79104C35.9105 1.01493 36.7016 0.298507 37.806 0H39.1344V0Z" fill="white"/>
<path d="M42.9552 20.2837L51.2388 11.4927L54.1045 14.3733C53.6418 14.8658 53.0895 15.4628 52.5373 16.0449C51.3134 17.3434 50.1045 18.627 48.8806 19.9106C48.7313 20.0748 48.4925 20.2539 48.2985 20.2539C46.5821 20.2837 44.8656 20.2688 42.9552 20.2688V20.2837Z" fill="white"/>
<path d="M53.6865 20.1495L56.7313 16.9106L60.1641 20.4032H53.7462L53.6865 20.1495Z" fill="white"/>
<path d="M15.0745 34.791V38.7761H9.59692V34.791H15.0745Z" fill="white"/>
</g>
<defs>
<clipPath id="clip0_3_1755">
<rect width="62" height="62.0448" fill="white"/>
</clipPath>
</defs>
</svg>
