<svg width="62" height="73" viewBox="0 0 62 73" fill="none" xmlns="http://www.w3.org/2000/svg">
<g clip-path="url(#clip0_3_1761)">
<path d="M29.1784 0C30.3982 0 31.6181 0 32.8379 0C33.0656 0.0487933 33.2933 0.0813221 33.521 0.130115C35.4727 0.520462 37.4733 0.764428 39.3599 1.34995C44.2067 2.8788 48.3054 5.62749 51.6396 9.4659C55.9496 14.4265 58.2104 20.2329 58.4544 26.7875C58.5682 29.8778 58.4869 32.9843 58.4869 36.0745C58.4869 37.5708 58.1941 39.0184 57.5436 40.3683C55.5756 44.4182 52.3064 46.5 47.8012 46.5813C47.053 46.5813 46.6464 46.8416 46.191 47.3945C45.3615 48.4029 44.4019 49.3137 43.4911 50.2571C43.3284 50.4197 43.1495 50.5661 42.8242 50.8589C44.9386 50.8589 46.8416 50.7938 48.7445 50.8589C52.7781 51.0052 56.031 52.6967 58.2592 56.1123C59.9832 58.7471 61.0729 61.6747 61.8699 64.6836C62.0488 65.383 62.0163 66.1962 61.8699 66.9119C61.2681 70.0509 58.6821 72.0839 55.3479 72.0839C39.0997 72.0839 22.8678 72.0839 6.61963 72.0839C6.4082 72.0839 6.19676 72.0839 5.98532 72.0839C2.11439 71.8725 -0.796944 68.1642 0.162657 64.4885C0.910821 61.6097 2.00054 58.8122 3.62698 56.2912C5.48112 53.3961 8.08343 51.4932 11.5315 51.1028C13.7272 50.8426 15.9717 50.9077 18.1999 50.8426C18.4601 50.8426 18.7366 50.8426 18.9643 50.8426C17.8584 49.639 16.7524 48.5005 15.7277 47.297C15.3374 46.8253 14.9796 46.5976 14.3452 46.5976C8.14849 46.5976 3.54566 41.9785 3.52939 35.7817C3.52939 33.1306 3.52939 30.4795 3.52939 27.8284C3.52939 23.6159 4.35888 19.5824 6.22929 15.7928C10.1165 7.90451 16.3295 2.84627 24.8846 0.715635C26.2833 0.374082 27.7471 0.227702 29.1784 0ZM41.1815 46.6138C40.8888 46.6138 40.6611 46.6138 40.4496 46.6138C38.7581 46.6138 37.0666 46.6138 35.3751 46.6138C34.4155 46.6138 33.6836 46.2072 33.2933 45.329C32.659 43.914 33.7162 42.4176 35.3751 42.4014C38.1726 42.3851 40.9538 42.4014 43.7513 42.3851C43.9953 42.3851 44.3531 42.2225 44.4507 42.0273C45.6543 39.49 45.947 36.7901 45.7518 33.9439C45.4916 33.9439 45.2639 33.9439 45.0362 33.9439C43.2309 33.9439 41.4255 33.9439 39.6202 33.9439C37.0341 33.9439 34.7408 33.1306 32.7566 31.4879C32.1223 30.9512 31.5367 30.3494 30.9187 29.7639C28.479 32.8704 25.2099 34.1228 21.2901 33.9601C19.8101 33.8951 18.33 33.9601 16.85 33.9601C16.6548 33.9601 16.4433 33.9927 16.2482 33.9927C15.6464 41.0352 19.2571 47.2319 25.3075 49.7204C31.5855 52.2901 37.9287 50.0782 41.1653 46.6138H41.1815ZM12.1983 25.4213C13.467 15.7114 21.2251 8.9617 29.9428 8.49003C34.0577 8.27859 37.8636 9.27072 41.2791 11.5803C46.2072 14.8982 48.9722 19.5824 49.8017 25.4213L54.1443 25.6815C53.3311 18.1511 49.9155 12.0357 43.4586 7.96957C35.4565 2.91133 27.0965 2.83001 18.9806 7.67681C12.2471 11.6941 8.75027 17.9234 7.95332 25.6653L12.1983 25.4213ZM31 66.4727L39.4087 55.1201H22.5913L31 66.4727Z" fill="white"/>
</g>
<defs>
<clipPath id="clip0_3_1761">
<rect width="62" height="72.1165" fill="white"/>
</clipPath>
</defs>
</svg>
